<?xml version="1.0" encoding="utf-8"?>
<!-- Generator: Adobe Illustrator 19.2.1, SVG Export Plug-In . SVG Version: 6.00 Build 0)  -->
<svg version="1.1" id="Layer_1" xmlns="http://www.w3.org/2000/svg" xmlns:xlink="http://www.w3.org/1999/xlink" x="0px" y="0px"
	 viewBox="0 0 50.1 50.1" style="enable-background:new 0 0 50.1 50.1;" xml:space="preserve">
<style type="text/css">
	.st0{fill:#FFFFFF;stroke:#000000;stroke-width:0.9558;stroke-miterlimit:10;}
	.st1{fill:none;stroke:#000000;stroke-width:0.9558;stroke-miterlimit:10;}
</style>
<g>
	<path class="st0" d="M37.9,49.6H12.4c-6.5,0-11.8-5.3-11.8-11.8V12.4c0-6.5,5.3-11.8,11.8-11.8h25.5c6.5,0,11.8,5.3,11.8,11.8v25.4
		C49.7,44.3,44.4,49.6,37.9,49.6z"/>
	<line class="st1" x1="15.1" y1="0.6" x2="15.1" y2="13.8"/>
	<line class="st1" x1="11.2" y1="0.6" x2="11.2" y2="13.8"/>
	<line class="st1" x1="7.4" y1="1.6" x2="7.4" y2="13.8"/>
	<path class="st0" d="M40.3,12.2h-3.1c-1.1,0-2-0.9-2-2V7.1c0-1.1,0.9-2,2-2h3.1c1.1,0,2,0.9,2,2v3.1C42.4,11.3,41.5,12.2,40.3,12.2
		z"/>
	<ellipse class="st0" cx="24.7" cy="25.7" rx="11.9" ry="11.8"/>
	<ellipse class="st0" cx="24.7" cy="25.7" rx="5.8" ry="5.8"/>
	<line class="st1" x1="0.6" y1="19.9" x2="14.6" y2="19.9"/>
	<line class="st1" x1="35" y1="19.9" x2="49.7" y2="19.9"/>
</g>
</svg>
