<?xml version="1.0" encoding="utf-8"?>
<!-- Generator: Adobe Illustrator 19.2.1, SVG Export Plug-In . SVG Version: 6.00 Build 0)  -->
<svg version="1.1" id="Layer_1" xmlns="http://www.w3.org/2000/svg" xmlns:xlink="http://www.w3.org/1999/xlink" x="0px" y="0px"
	 viewBox="0 0 50.6 50.8" style="enable-background:new 0 0 50.6 50.8;" xml:space="preserve">
<style type="text/css">
	.st0{fill:#FFFFFF;stroke:#000000;stroke-width:0.8813;stroke-miterlimit:10;}
</style>
<path class="st0" d="M50,6.4L50,6.4c-1,2.8-3.1,5.1-5,6.9v-0.1v0.2c0,0.1,0,0.2,0,0.3c0,20.1-12.7,36.4-28.3,36.4
	c-5.9,0-11.5-2.4-16-6.4c0.9,0.7,2.1,0.8,2.1,0.8C11.4,46,17,39.4,17,39.4c-7-0.1-9-8.7-9-8.7c2.1,0.6,4.3-0.2,4.3-0.2
	C4.2,28,4.7,18.1,4.7,18.1c1.9,1.6,4.2,1.6,4.2,1.6C1.5,12.2,6,3.1,6,3.1c9,13.5,19.8,13,19.8,13c-0.2-0.9-0.2-1.8-0.2-2.8
	c0-6.9,4.3-12.5,9.7-12.5c2.8,0,5.4,1.6,7.2,4.1V4.8c0.5,0,1-0.2,1.6-0.3c1.6-0.6,3.2-1.7,4.5-2.8c-0.6,2.7-2.1,5.2-3.9,6.7
	c-0.1,0.1-0.2,0.1-0.3,0.2c0.1,0,0.2,0,0.3,0C46.6,8.4,48.4,7.4,50,6.4z"/>
</svg>
